<svg xmlns="http://www.w3.org/2000/svg" version="1.1" xmlns:xlink="http://www.w3.org/1999/xlink" xmlns:svgjs="http://svgjs.dev/svgjs" width="1000" height="340" viewBox="0 0 1000 340"><g transform="matrix(1,0,0,1,-0.6060550498696671,-0.039606546297591194)"><svg viewBox="0 0 396 135" data-background-color="#ffffff" preserveAspectRatio="xMidYMid meet" height="340" width="1000" xmlns="http://www.w3.org/2000/svg" xmlns:xlink="http://www.w3.org/1999/xlink"><g id="tight-bounds" transform="matrix(1,0,0,1,0.2399977997483802,0.015726128676988083)"><svg viewBox="0 0 395.52 134.968547742646" height="134.968547742646" width="395.52"><g><svg viewBox="0 0 569.1562203512844 194.22074357682615" height="134.968547742646" width="395.52"><g transform="matrix(1,0,0,1,0,47.65258121626483)"><svg viewBox="0 0 395.52 98.9155811442965" height="98.9155811442965" width="395.52"><g id="textblocktransform"><svg viewBox="0 0 395.52 98.9155811442965" height="98.9155811442965" width="395.52" id="textblock"><g><svg viewBox="0 0 395.52 98.9155811442965" height="98.9155811442965" width="395.52"><g transform="matrix(1,0,0,1,0,0)"><svg width="395.52" viewBox="2.25 -34.75 138.94000244140625 34.75" height="98.9155811442965" data-palette-color="#39cccc"><path d="M2.25-34.75L11.3-34.75 11.3 0 2.25 0 2.25-34.75ZM41-34.75L41 0 29.8 0 22.4-26.5Q23-22.05 23.27-19.1 23.55-16.15 23.55-11.95L23.55-11.95 23.55 0 15.75 0 15.75-34.75 26.8-34.75 34.35-8.15Q33.8-11.8 33.47-14.88 33.15-17.95 33.15-21.85L33.15-21.85 33.15-34.75 41-34.75ZM61.5-34.75L70.5-34.75 62.5 0 50.85 0 42.35-34.75 51.65-34.75 56.8-6.7 61.5-34.75ZM71.89-34.75L80.94-34.75 80.94 0 71.89 0 71.89-34.75ZM85.39-34.75L94.44-34.75 94.44 0 85.39 0 85.39-34.75ZM103.79-34.75L112.89-34.75 103.79-19.2 113.69 0 103.64 0 94.69-18.5 103.79-34.75ZM141.19 0L131.84 0 130.49-7.2 122.59-7.2 121.24 0 112.04 0 121.24-34.75 132.04-34.75 141.19 0ZM126.54-28.25L123.79-13.6 129.29-13.6 126.54-28.25Z" opacity="1" transform="matrix(1,0,0,1,0,0)" fill="#39cccc" class="wordmark-text-0" data-fill-palette-color="primary" id="text-0"></path></svg></g></svg></g></svg></g></svg></g><g transform="matrix(1,0,0,1,418.87159473422093,0)"><svg viewBox="0 0 150.2846256170636 194.22074357682615" height="194.22074357682615" width="150.2846256170636"><g><svg xmlns="http://www.w3.org/2000/svg" xmlns:xlink="http://www.w3.org/1999/xlink" version="1.1" x="0" y="0" viewBox="12.982999801635742 1 75.68599700927734 97.81300354003906" enable-background="new 0 0 100 100" xml:space="preserve" height="194.22074357682615" width="150.2846256170636" class="icon-icon-0" data-fill-palette-color="accent" id="icon-0"><g fill="#ff851b" data-fill-palette-color="accent"><polygon fill-rule="evenodd" clip-rule="evenodd" points="12.983,10.59 30.001,98.813 24.129,39.764 53.15,37.872 53.096,27.989    64.549,1 53.622,18.977  " fill="#ff851b" data-fill-palette-color="accent"></polygon><polygon fill-rule="evenodd" clip-rule="evenodd" points="59.389,54.548 64.549,1.007 55.809,40.723 36.197,41.768 37.767,62.23    30.001,98.813 42.058,58.914  " fill="#ff851b" data-fill-palette-color="accent"></polygon><polygon fill-rule="evenodd" clip-rule="evenodd" points="62.8,67.182 63.349,56.729 47.37,60.484 47.338,72.281 30.001,98.813    51.681,71.197  " fill="#ff851b" data-fill-palette-color="accent"></polygon><polygon fill-rule="evenodd" clip-rule="evenodd" points="65.711,62.394 80.552,57.663 82.061,45.131 66.162,47.226  " fill="#ff851b" data-fill-palette-color="accent"></polygon><polygon fill-rule="evenodd" clip-rule="evenodd" points="72.07,44.502 83.058,43.085 84.639,32.807 76.56,32.434 64.549,1    72.979,31.967  " fill="#ff851b" data-fill-palette-color="accent"></polygon><polygon fill-rule="evenodd" clip-rule="evenodd" points="87.413,31.294 88.669,21.788 79.125,19.094 64.549,1 79.032,23.437    78.61,30.437  " fill="#ff851b" data-fill-palette-color="accent"></polygon></g></svg></g></svg></g></svg></g><defs></defs></svg><rect width="395.52" height="134.968547742646" fill="none" stroke="none" visibility="hidden"></rect></g></svg></g></svg>